<svg xmlns="http://www.w3.org/2000/svg" viewBox="0 0 512 512" role="img" aria-label="XTOYBOX">
  <defs>
    <linearGradient id="xg" x1="92" y1="420" x2="420" y2="92" gradientUnits="userSpaceOnUse">
      <stop offset="0" stop-color="#2fd318" />
      <stop offset="0.52" stop-color="#8af000" />
      <stop offset="1" stop-color="#caff1a" />
    </linearGradient>
    <filter id="glow" x="-30%" y="-30%" width="160%" height="160%">
      <feGaussianBlur stdDeviation="9" result="blur" />
      <feMerge>
        <feMergeNode in="blur" />
        <feMergeNode in="SourceGraphic" />
      </feMerge>
    </filter>
  </defs>
  <rect width="512" height="512" rx="116" fill="#050807" />
  <path d="M142 312c-42 0-76-32-76-72 0-37 29-68 66-72 18-49 66-84 123-84 68 0 124 47 136 108 32 5 56 32 56 66 0 37-31 67-70 67H142Z" fill="none" stroke="url(#xg)" stroke-width="26" stroke-linecap="round" stroke-linejoin="round" opacity="0.96" filter="url(#glow)" />
  <path d="M108 238h82M80 276h104M132 316h58" stroke="url(#xg)" stroke-width="21" stroke-linecap="round" opacity="0.9" />
  <path d="M178 158h82l58 70 59-70h86l-101 98 101 106h-87l-58-70-59 70h-85l101-106-97-98Z" fill="url(#xg)" filter="url(#glow)" />
</svg>
